<?xml version="1.0" standalone="no"?><!DOCTYPE svg PUBLIC "-//W3C//DTD SVG 1.1//EN" "http://www.w3.org/Graphics/SVG/1.1/DTD/svg11.dtd"><svg t="1636263666678" class="icon" viewBox="0 0 1024 1024" version="1.1" xmlns="http://www.w3.org/2000/svg" p-id="6005" xmlns:xlink="http://www.w3.org/1999/xlink" width="200" height="200"><defs><style type="text/css"></style></defs><path d="M778.602695 986.104847H245.325055c-65.386298 0-118.490087-53.103789-118.490087-118.490087V156.60199c0-65.494673 53.067664-118.562337 118.490087-118.562337h355.506385c39.737529-0.578 55.524166 0.830876 59.281168 0.830875v-0.830875l237.052424 237.052423v592.558809c0 65.386298-53.067664 118.453962-118.562337 118.453962z m-118.490087-888.784026v118.490087c0 32.801524 26.479644 59.281168 59.281169 59.281168h118.490087l-177.771256-177.771255z m177.771256 237.052424h-118.490087c-65.494673 0-118.562337-53.067664-118.562337-118.562337 0 0-1.300501-47.540535-0.830876-118.490087H245.325055c-32.693149 0-59.208918 26.479644-59.208919 59.281169v711.048895c0 32.693149 26.479644 59.281168 59.208919 59.281169h533.27764c32.801524 0 59.281168-26.588019 59.281169-59.281169V334.373245z m-148.148734 414.715304H334.19262c-16.364637 0-29.586397-13.257885-29.586397-29.586397 0-16.364637 13.257885-29.586397 29.586397-29.586397h355.506385c16.436887 0 29.694772 13.257885 29.694772 29.586397s-13.22176 29.586397-29.658647 29.586397z m0-177.771256H334.19262c-16.364637 0-29.586397-13.257885-29.586397-29.622521 0-16.328512 13.257885-29.586397 29.586397-29.586397h355.506385c16.436887 0 29.694772 13.257885 29.694772 29.586397 0 16.364637-13.22176 29.622522-29.658647 29.622521z" fill="#231815" p-id="6006"></path></svg>